<svg width="24" height="24" viewBox="0 0 24 24" fill="none" xmlns="http://www.w3.org/2000/svg">
<path fill-rule="evenodd" clip-rule="evenodd" d="M19.2908 3.84C19.8034 3.83988 20.2256 4.24237 20.25 4.7543L21.1187 22.9943C21.1312 23.2566 21.0357 23.5125 20.8545 23.7025C20.6733 23.8925 20.4222 24 20.1596 24H4.79965C4.53717 23.9999 4.28618 23.8923 4.10509 23.7023C3.92399 23.5123 3.82859 23.2565 3.84109 22.9943L4.70969 4.7543C4.73409 4.24241 5.15626 3.83993 5.66873 3.84H8.6863C8.6863 1.71923 10.4055 0 12.5263 0C14.6471 0 16.3663 1.71923 16.3663 3.84H19.2908ZM15.4063 3.84C15.4045 2.25017 14.1161 0.961799 12.5263 0.96C10.9365 0.961799 9.6481 2.25017 9.6463 3.84H15.4063ZM5.66874 4.8H8.68631V8.16C8.68631 8.4251 8.90121 8.64 9.16631 8.64C9.43141 8.64 9.64631 8.4251 9.64631 8.16V4.8H15.4063V8.16C15.4063 8.4251 15.6212 8.64 15.8863 8.64C16.1514 8.64 16.3663 8.4251 16.3663 8.16V4.8H19.2798L19.9743 19.2H4.98301L5.66874 4.8ZM4.93683 20.16L4.79965 23.04H20.1597L20.0205 20.16H4.93683Z" fill="#333333"/>
</svg>
