<svg width="32" height="32" viewBox="0 0 32 32" fill="none" xmlns="http://www.w3.org/2000/svg">
<path fill-rule="evenodd" clip-rule="evenodd" d="M21.5237 20.7717L29.2907 28.5388C29.4922 28.7475 29.4893 29.0792 29.2842 29.2843C29.0791 29.4895 28.7474 29.4923 28.5387 29.2908L20.7718 21.5236C16.6849 25.2028 10.4107 24.956 6.62561 20.967C2.84049 16.978 2.9228 10.6996 6.8112 6.81129C10.6996 2.92294 16.9781 2.84063 20.9671 6.6257C24.9561 10.4108 25.203 16.6849 21.5237 20.7717ZM4.98374 14.0244C4.98374 19.0174 9.03141 23.065 14.0245 23.065C19.0151 23.0592 23.0593 19.015 23.0652 14.0244C23.0652 9.03141 19.0175 4.98379 14.0245 4.98379C9.03141 4.98379 4.98374 9.03141 4.98374 14.0244Z" fill="black"/>
</svg>
