<svg width="19" height="23" viewBox="0 0 19 23" fill="none" xmlns="http://www.w3.org/2000/svg">
<path fill-rule="evenodd" clip-rule="evenodd" d="M15.0936 5.42956C15.6949 8.04536 14.4098 10.7298 11.9952 11.9018C15.6302 13.0124 18.1149 16.365 18.12 20.1659V21.6059C18.12 21.871 17.9051 22.0859 17.64 22.0859C17.3749 22.0859 17.16 21.871 17.16 21.6059V20.1659C17.16 15.9243 13.7215 12.4859 9.48 12.4859C5.23845 12.4859 1.8 15.9243 1.8 20.1659V21.6059C1.8 21.871 1.5851 22.0859 1.32 22.0859C1.0549 22.0859 0.84 21.871 0.84 21.6059V20.1659C0.845071 16.365 3.3298 13.0124 6.9648 11.9018C4.55019 10.7298 3.26511 8.04536 3.8664 5.42956C4.4677 2.81376 6.79598 0.959961 9.48 0.959961C12.164 0.959961 14.4923 2.81376 15.0936 5.42956ZM9.48 1.92586C6.82903 1.92586 4.68 4.07489 4.68 6.72586C4.68296 9.37559 6.83026 11.5229 9.48 11.5259C12.131 11.5259 14.28 9.37682 14.28 6.72586C14.28 4.07489 12.131 1.92586 9.48 1.92586Z" fill="black"/>
</svg>
